<?xml version="1.0" standalone="no"?>
<!DOCTYPE svg PUBLIC "-//W3C//DTD SVG 20010904//EN"
 "http://www.w3.org/TR/2001/REC-SVG-20010904/DTD/svg10.dtd">
<svg version="1.0" xmlns="http://www.w3.org/2000/svg"
 width="1431.000000pt" height="434.000000pt" viewBox="0 0 1431.000000 434.000000"
 preserveAspectRatio="xMidYMid meet">

<g enable-background="new" transform="translate(0.000000,434.000000) scale(0.100000,-0.100000)" stroke="none">
<path color="#fff" d="M0 2170 l0 -2170 2775 0 2775 0 0 2170 0 2170 -2775 0 -2775 0 0
-2170z m2936 1919 c55 -28 108 -91 124 -147 14 -52 14 -3432 0 -3484 -37 -130
-194 -208 -329 -163 -87 29 -171 135 -171 217 0 10 -2 18 -5 18 -2 0 -33 -18
-67 -41 -125 -81 -292 -150 -450 -186 -106 -24 -384 -24 -498 0 -512 109 -907
506 -1007 1014 -23 120 -23 366 0 486 101 509 493 904 1010 1014 111 24 390
24 495 0 158 -36 325 -105 450 -186 34 -23 65 -41 67 -41 3 0 5 296 5 658 0
744 -3 718 76 796 24 25 63 51 86 60 62 23 153 16 214 -15z m1052 -244 c49
-21 110 -80 133 -130 17 -37 19 -72 19 -457 l0 -418 229 0 c241 0 269 -4 332
-48 155 -110 139 -346 -30 -434 l-53 -28 -239 0 -240 0 3 -672 3 -673 30 -54
c37 -67 85 -107 154 -127 92 -27 161 -9 252 67 63 53 112 71 185 71 186 1 311
-204 226 -368 -60 -115 -259 -240 -444 -278 -419 -86 -838 207 -907 634 -7 43
-11 512 -11 1386 0 1133 2 1327 15 1370 31 105 127 174 242 174 35 0 80 -7
101 -15z"/>
<path d="M1675 2319 c-181 -27 -378 -143 -490 -290 -59 -79 -119 -204 -141
-295 -22 -91 -22 -257 0 -349 23 -98 94 -238 161 -318 164 -198 441 -305 690
-267 545 82 834 681 555 1151 -158 267 -466 413 -775 368z"/>
<path d="M5600 2170 l0 -2170 4355 0 4355 0 0 2170 0 2170 -4355 0 -4355 0 0
-2170z m1295 1405 l25 -24 0 -581 0 -581 -25 -24 c-14 -15 -36 -25 -53 -25
-36 0 -82 34 -82 61 0 24 -2 24 -42 -1 -50 -31 -154 -60 -212 -60 -207 0 -379
146 -417 354 -30 161 56 344 202 429 55 33 148 57 215 57 58 0 162 -29 211
-59 l32 -20 3 225 3 226 28 24 c37 31 81 31 112 -1z m2872 -87 c28 -26 37 -64
22 -100 -12 -29 -54 -58 -83 -58 -46 0 -96 51 -96 98 0 24 36 71 64 82 28 12
66 3 93 -22z m-2158 -327 c125 -39 209 -112 264 -229 30 -62 32 -75 32 -172 0
-97 -2 -110 -32 -172 -128 -270 -470 -332 -679 -122 -91 90 -138 238 -115 360
46 254 292 409 530 335z m594 8 c12 -7 28 -20 37 -30 14 -18 17 -18 70 9 48
24 66 27 150 27 83 0 102 -3 151 -28 31 -15 77 -45 101 -67 l45 -39 34 35 c83
86 235 124 355 89 148 -42 247 -153 274 -306 7 -38 10 -148 8 -267 l-3 -204
-28 -24 c-37 -31 -81 -31 -112 1 l-25 24 0 217 c0 237 -6 272 -53 330 -97 117
-283 90 -348 -51 -16 -35 -19 -67 -19 -263 l0 -224 -29 -29 c-31 -31 -55 -36
-94 -18 -42 19 -47 46 -47 275 0 171 -3 222 -16 252 -72 174 -316 174 -388 0
-13 -30 -16 -81 -16 -261 l0 -224 -26 -27 c-36 -35 -77 -34 -115 3 l-29 29 0
362 0 362 29 29 c31 31 59 36 94 18z m1558 -18 l29 -29 0 -362 0 -362 -29 -29
c-43 -42 -106 -34 -130 18 -15 33 -15 713 0 747 24 51 87 59 130 17z m363 3
c14 -15 26 -33 26 -40 0 -9 24 -2 74 22 215 102 456 14 559 -204 l32 -67 3
-237 3 -238 -25 -25 c-32 -32 -76 -33 -113 -1 l-28 24 -5 229 c-5 212 -7 230
-27 263 -117 189 -388 166 -458 -39 -11 -34 -15 -92 -15 -246 l0 -202 -26 -27
c-36 -35 -77 -34 -115 3 l-29 29 0 362 0 362 29 29 c38 37 79 38 115 3z m1417
6 c35 -11 79 -29 97 -40 40 -25 42 -25 42 -1 0 27 46 61 82 61 17 0 39 -10 54
-25 l25 -25 -3 -447 -3 -448 -32 -67 c-121 -256 -437 -328 -650 -147 -58 49
-67 91 -30 134 32 37 85 37 129 -1 110 -92 265 -83 357 21 47 54 61 94 61 175
l0 70 -32 -20 c-50 -31 -154 -60 -212 -60 -67 0 -160 24 -215 57 -146 85 -232
268 -202 429 47 255 292 409 532 334z m988 1 c125 -39 209 -112 264 -229 30
-62 32 -75 32 -172 0 -97 -2 -110 -32 -172 -128 -270 -470 -332 -679 -122 -91
90 -138 238 -115 360 46 254 292 409 530 335z m1056 -6 c27 -27 33 -79 12
-106 -25 -33 -55 -39 -197 -39 -136 0 -142 -1 -165 -25 -34 -33 -34 -83 1
-116 24 -22 35 -24 162 -29 151 -6 173 -12 230 -65 140 -126 92 -357 -87 -420
-34 -11 -90 -15 -246 -15 l-202 0 -27 26 c-35 36 -34 77 3 115 l29 29 197 0
c195 0 196 0 220 25 34 33 34 83 -1 116 -24 22 -35 24 -162 30 -150 6 -172 12
-226 60 -108 94 -113 263 -11 364 62 63 103 73 288 74 155 1 158 1 182 -24z
m-3111 -1241 l26 -27 0 -577 0 -577 -26 -27 c-36 -35 -77 -34 -115 3 l-29 29
0 572 0 572 29 29 c38 37 79 38 115 3z m-4236 -90 c21 -24 22 -34 22 -165 l0
-139 81 0 c76 0 82 -2 110 -29 17 -18 29 -40 29 -56 0 -16 -12 -38 -29 -56
-28 -27 -34 -29 -110 -29 l-81 0 0 -215 c0 -170 3 -222 15 -244 25 -49 76 -55
133 -16 45 31 73 32 106 3 40 -35 43 -78 11 -117 -59 -69 -175 -99 -261 -66
-58 22 -118 75 -147 129 -22 40 -22 47 -22 512 0 446 1 473 19 492 34 38 87
36 124 -4z m991 -323 c81 -25 139 -60 190 -116 93 -101 140 -276 91 -338 l-21
-27 -305 0 c-341 0 -328 3 -271 -71 71 -94 197 -125 303 -75 28 13 55 29 59
36 24 39 114 41 143 3 18 -25 15 -77 -8 -106 -31 -39 -108 -86 -178 -107 -241
-75 -486 79 -533 334 -30 161 56 343 202 429 95 56 223 71 328 38z m595 -7
c14 -15 26 -33 26 -40 0 -9 24 -2 73 22 49 23 94 36 138 40 59 6 67 4 94 -18
22 -20 29 -34 29 -62 0 -52 -27 -75 -103 -86 -72 -10 -139 -46 -175 -93 -49
-64 -56 -103 -56 -322 l0 -202 -26 -27 c-36 -35 -77 -34 -115 3 l-29 29 0 362
0 362 29 29 c38 37 79 38 115 3z m690 0 l26 -27 0 -202 c0 -154 4 -212 15
-246 70 -205 341 -228 458 -39 20 33 22 51 27 263 l5 229 28 24 c37 31 81 31
112 -1 l25 -24 0 -371 0 -371 -25 -24 c-14 -15 -36 -25 -53 -25 -36 0 -82 34
-82 61 0 24 -2 24 -42 -1 -18 -11 -62 -29 -97 -40 -233 -73 -478 74 -530 318
-6 29 -11 141 -11 248 l0 196 29 29 c38 37 79 38 115 3z m1385 7 c81 -25 139
-60 190 -116 93 -101 140 -276 91 -338 l-21 -27 -305 0 c-341 0 -328 3 -271
-71 71 -94 197 -125 303 -75 28 13 55 29 59 36 24 39 114 41 143 3 18 -25 15
-77 -8 -106 -31 -39 -108 -86 -178 -107 -241 -75 -486 79 -533 334 -30 161 56
343 202 429 95 56 223 71 328 38z"/>
<path d="M6392 2984 c-61 -30 -105 -80 -127 -143 -71 -208 142 -400 340 -307
55 25 110 81 131 132 18 43 18 145 0 188 -55 131 -218 193 -344 130z"/>
<path d="M7382 2984 c-61 -30 -105 -80 -127 -143 -71 -208 142 -400 340 -307
55 25 110 81 131 132 18 43 18 145 0 188 -55 131 -218 193 -344 130z"/>
<path d="M11312 2984 c-61 -30 -105 -80 -127 -143 -71 -208 142 -400 340 -307
55 25 110 81 131 132 18 43 18 145 0 188 -55 131 -218 193 -344 130z"/>
<path d="M12302 2984 c-61 -30 -105 -80 -127 -143 -71 -208 142 -400 340 -307
55 25 110 81 131 132 18 43 18 145 0 188 -55 131 -218 193 -344 130z"/>
<path d="M6999 1322 c-53 -27 -119 -99 -119 -128 0 -12 38 -14 230 -14 226 0
230 0 230 21 0 31 -97 122 -146 137 -70 21 -136 15 -195 -16z"/>
<path d="M9669 1322 c-53 -27 -119 -99 -119 -128 0 -12 38 -14 230 -14 226 0
230 0 230 21 0 31 -97 122 -146 137 -70 21 -136 15 -195 -16z"/>
</g>
</svg>
