<?xml version="1.0" standalone="no"?>
<!DOCTYPE svg PUBLIC "-//W3C//DTD SVG 20010904//EN"
 "http://www.w3.org/TR/2001/REC-SVG-20010904/DTD/svg10.dtd">
<svg version="1.0" xmlns="http://www.w3.org/2000/svg"
 width="500.000000pt" height="500.000000pt" viewBox="0 0 500.000000 500.000000"
 preserveAspectRatio="xMidYMid meet">
<metadata>
Created by potrace 1.14, written by Peter Selinger 2001-2017
</metadata>
<g transform="translate(0.000000,500.000000) scale(0.100000,-0.100000)"
fill="#000000" stroke="none">
<path d="M0 2500 l0 -2500 2500 0 2500 0 0 2500 0 2500 -2500 0 -2500 0 0
-2500z m2644 1917 c22 -12 53 -39 70 -60 l31 -39 3 -1656 c2 -1133 0 -1668 -8
-1693 -15 -54 -87 -116 -144 -124 -68 -11 -112 2 -158 43 -55 50 -68 85 -68
187 l0 87 -52 -45 c-204 -172 -429 -259 -703 -273 -412 -22 -779 151 -1031
485 -295 391 -311 957 -38 1368 113 170 325 355 498 433 308 140 676 146 979
15 101 -43 169 -85 268 -163 l79 -62 0 685 c0 753 -2 722 61 781 62 57 146 70
213 31z m931 -247 c19 -11 44 -38 57 -58 23 -37 23 -41 28 -452 l5 -415 295
-5 c287 -5 296 -6 333 -28 20 -13 49 -44 63 -68 23 -38 26 -53 22 -108 -3 -50
-10 -71 -32 -100 -54 -72 -47 -70 -381 -76 l-300 -5 0 -685 0 -685 26 -56 c37
-79 90 -133 166 -171 57 -28 75 -32 143 -31 91 0 156 26 235 92 78 65 146 75
230 35 75 -35 117 -131 95 -214 -9 -35 -27 -60 -81 -112 -167 -162 -434 -226
-674 -162 -172 46 -359 198 -442 359 -84 162 -77 39 -81 1500 -2 911 0 1311 8
1337 34 118 180 173 285 108z"/>
<path d="M1448 2850 c-183 -23 -339 -100 -475 -237 -158 -158 -233 -341 -233
-573 0 -172 35 -300 116 -427 117 -184 290 -312 489 -364 105 -27 288 -29 395
-4 285 66 524 298 602 584 30 108 30 314 0 422 -62 228 -232 430 -445 529
-127 60 -307 88 -449 70z"/>
</g>
</svg>
